<svg xmlns="http://www.w3.org/2000/svg" width="18.656" height="15" viewBox="0 0 18.656 15">
    <path id="Path_655" data-name="Path 655" d="M-16.875-1.828a1.085,1.085,0,0,1-.8.328,1.085,1.085,0,0,1-.8-.328L-19.5-2.906a1.085,1.085,0,0,1-.328-.8,1.085,1.085,0,0,1,.328-.8L-15-9l-4.5-4.5a1.085,1.085,0,0,1-.328-.8,1.085,1.085,0,0,1,.328-.8l1.031-1.078a1.085,1.085,0,0,1,.8-.328,1.085,1.085,0,0,1,.8.328L-10.5-9.8a1.085,1.085,0,0,1,.328.8,1.085,1.085,0,0,1-.328.8ZM-1.5-9.8a1.085,1.085,0,0,1,.328.8,1.085,1.085,0,0,1-.328.8L-7.875-1.828a1.085,1.085,0,0,1-.8.328,1.085,1.085,0,0,1-.8-.328L-10.5-2.906a1.085,1.085,0,0,1-.328-.8,1.085,1.085,0,0,1,.328-.8L-6-9l-4.5-4.547a.938.938,0,0,1-.328-.75,1.085,1.085,0,0,1,.328-.8l1.031-1.078a1.085,1.085,0,0,1,.8-.328,1.085,1.085,0,0,1,.8.328Z" transform="translate(19.828 16.5)" fill="#f4f4f4"/>
</svg>