<svg xmlns="http://www.w3.org/2000/svg" width="18.656" height="15" viewBox="0 0 18.656 15">
    <path id="Path_649" data-name="Path 649" d="M-4.125-16.172a1.085,1.085,0,0,1,.8-.328,1.085,1.085,0,0,1,.8.328L-1.5-15.094a1.085,1.085,0,0,1,.328.8.938.938,0,0,1-.328.75L-6-9l4.5,4.5a1.085,1.085,0,0,1,.328.8,1.085,1.085,0,0,1-.328.8L-2.531-1.828a1.085,1.085,0,0,1-.8.328,1.085,1.085,0,0,1-.8-.328L-10.5-8.2a1.085,1.085,0,0,1-.328-.8,1.085,1.085,0,0,1,.328-.8ZM-19.5-8.2a1.085,1.085,0,0,1-.328-.8,1.085,1.085,0,0,1,.328-.8l6.375-6.375a1.085,1.085,0,0,1,.8-.328,1.085,1.085,0,0,1,.8.328l1.031,1.078a1.085,1.085,0,0,1,.328.8,1.085,1.085,0,0,1-.328.8L-15-9l4.5,4.5a1.085,1.085,0,0,1,.328.8,1.085,1.085,0,0,1-.328.8l-1.031,1.078a1.085,1.085,0,0,1-.8.328,1.085,1.085,0,0,1-.8-.328Z" transform="translate(19.828 16.5)" fill="#f4f4f4"/>
</svg>